<svg width="145" height="33" viewBox="0 0 145 33" fill="none" xmlns="http://www.w3.org/2000/svg">
<path d="M0 18.4829V13.4342C0 10.8025 1.45702 9.38672 3.89807 9.38672C6.2652 9.38672 7.61453 10.8025 7.699 13.3837H5.46067C5.40577 12.0962 4.91376 11.5514 3.89384 11.5514C2.87393 11.5514 2.31012 12.1131 2.31012 13.4447V18.4935C2.31012 19.8188 2.89293 20.3867 3.93185 20.3867C5.00667 20.3867 5.58948 19.8251 5.58948 18.5355V17.3007H3.82205V15.3232H7.77501V18.5187C7.72011 21.0957 6.29687 22.5283 3.89595 22.5283C1.49503 22.5283 0 21.0957 0 18.4829Z" fill="white"/>
<path d="M14.8568 20.008H11.8709L11.3599 22.322H9.03711L12.1708 9.62012H14.5696L17.699 22.3052H15.3762L14.8568 20.008ZM14.4028 17.8875L13.8917 15.5293C13.7101 14.6584 13.5095 13.2615 13.3807 12.4075H13.3258C13.216 13.2594 13.0154 14.6584 12.8338 15.5293L12.3249 17.8875H14.4028Z" fill="white"/>
<path d="M29.9387 9.60962V22.3052H27.7362V18.3377C27.7911 16.8504 27.846 15.3926 27.9178 13.9642L27.827 13.9284C27.4617 14.9803 27.0436 16.1246 26.6424 17.2669L25.7872 19.5178H23.5637L22.7084 17.2669C22.3072 16.1246 21.906 14.9803 21.5238 13.9284L21.433 13.9642C21.5048 15.3968 21.5597 16.8483 21.6146 18.3377V22.3052H19.427V9.60962H21.6864L23.7622 14.5806C24.0346 15.2516 24.4717 16.4128 24.6364 16.9388H24.7061C24.8708 16.4128 25.3248 15.2558 25.5993 14.5806L27.6623 9.60962H29.9387Z" fill="white"/>
<path d="M37.4983 20.0081H34.5125L33.9972 22.3053H31.6744L34.8081 9.60339H37.2069L40.3321 22.3053H38.0093L37.4983 20.0081ZM37.0443 17.8876L36.5312 15.5252C36.3496 14.6543 36.149 13.2574 36.0202 12.4034H35.9653C35.8555 13.2553 35.6549 14.6543 35.4733 15.5252L34.9665 17.8876H37.0443Z" fill="white"/>
<path d="M85.2272 19.6994H81.5297L80.8561 22.4573H79.2893L82.5644 9.75537H84.1862L87.4655 22.4573H85.9008L85.2272 19.6994ZM84.8999 18.3194L83.861 14.0195C83.6604 13.2033 83.4788 12.1262 83.4049 11.6424H83.35C83.2782 12.1325 83.0945 13.2033 82.8939 14.0195L81.8549 18.3194H84.8999Z" fill="white"/>
<path d="M88.8177 18.7926V13.4199C88.8177 10.9165 90.2388 9.51758 92.3694 9.51758C94.555 9.51758 95.9022 10.8597 96.031 13.3042H94.5529C94.4431 11.6717 93.6787 10.9081 92.3483 10.9081C91.1278 10.9081 90.3085 11.7054 90.3085 13.4114V18.7926C90.3085 20.4755 91.1637 21.2791 92.4032 21.2791C93.7505 21.2791 94.498 20.4987 94.6437 18.902H96.1218C95.9761 21.3149 94.6289 22.6759 92.4053 22.6759C90.2557 22.6759 88.8177 21.296 88.8177 18.7926Z" fill="white"/>
<path d="M102.878 19.6994H99.181L98.5074 22.4573H96.9406L100.22 9.75537H101.842L105.121 22.4573H103.554L102.878 19.6994ZM102.551 18.3194L101.512 14.0195C101.312 13.2033 101.13 12.1262 101.056 11.6424H101.001C100.929 12.1325 100.746 13.2033 100.545 14.0195L99.5062 18.3194H102.551Z" fill="white"/>
<path d="M107.06 9.75537H110.083C112.524 9.75537 113.946 11.1711 113.946 13.603V18.6118C113.946 21.0436 112.508 22.4594 110.102 22.4594H107.06V9.75537ZM110.109 21.0436C111.602 21.0436 112.459 20.2021 112.459 18.5571V13.6387C112.459 12.0063 111.614 11.1711 110.109 11.1711H108.561V21.0436H110.109Z" fill="white"/>
<path d="M123.023 21.0604V22.4573H116.72V9.75537H122.823V11.1354H118.215V15.328H122.496V16.689H118.215V21.0625L123.023 21.0604Z" fill="white"/>
<path d="M135.064 9.75537V22.4573H133.586V16.6259C133.605 15.2459 133.641 14.0132 133.713 12.7783L133.639 12.7594C133.293 13.7208 132.82 14.9009 132.372 16.0979L131.042 19.5269H129.564L128.216 16.0979C127.779 14.9009 127.287 13.7208 126.95 12.7594L126.859 12.7783C126.933 14.0132 126.985 15.2459 126.985 16.6259V22.4509H125.507V9.75537H127.074L129.279 15.0713C129.589 15.8328 130.043 17.0845 130.244 17.7387H130.318C130.529 17.0866 130.991 15.8328 131.302 15.0713L133.506 9.75537H135.064Z" fill="white"/>
<path d="M140.071 18.0985L136.939 9.75537H138.506L140.126 14.3119C140.337 14.9114 140.599 15.6372 140.818 16.2893H140.846C141.057 15.6351 141.319 14.8925 141.538 14.2761L143.16 9.75748H144.727L141.566 18.0985V22.453H140.073L140.071 18.0985Z" fill="white"/>
<circle cx="60" cy="16" r="16" fill="white"/>
<path d="M55.1133 18.3808H52.2478V12.1603L55.1133 11.647V18.3808Z" fill="black"/>
<path d="M59.2263 18.3807H56.3608V10.8012L59.2263 10.2606V18.3807Z" fill="black"/>
<path d="M63.3388 9.56641H60.4733V18.3807H63.3388V9.56641Z" fill="black"/>
<path d="M67.4541 18.3807H64.5886V10.7949L67.4541 11.3082V18.3807Z" fill="black"/>
<path d="M67.4509 19.6302H60.4762V22.4849H67.4509V19.6302Z" fill="black"/>
</svg>
