<svg width="186" height="42" viewBox="0 0 186 42" fill="none" xmlns="http://www.w3.org/2000/svg">
<path d="M0 23.6723V17.2056C0 13.8348 1.86621 12.0215 4.99279 12.0215C8.02471 12.0215 9.75299 13.8348 9.86117 17.1409H6.99424C6.92392 15.4919 6.29373 14.7941 4.98738 14.7941C3.68104 14.7941 2.95889 15.5135 2.95889 17.2191V23.6857C2.95889 25.3832 3.70538 26.1107 5.03607 26.1107C6.41273 26.1107 7.15922 25.3913 7.15922 23.7396V22.158H4.89543V19.6252H9.95854V23.7181C9.88822 27.0188 8.06528 28.8537 4.99009 28.8537C1.91489 28.8537 0 27.0188 0 23.6723Z" fill="white"/>
<path d="M19.0248 25.6255H15.2004L14.5459 28.5894H11.5708L15.5845 12.3203H18.657L22.6653 28.5678H19.6902L19.0248 25.6255ZM18.4433 22.9095L17.7888 19.889C17.5562 18.7735 17.2993 16.9844 17.1343 15.8905H17.064C16.9233 16.9817 16.6664 18.7735 16.4338 19.889L15.7819 22.9095H18.4433Z" fill="white"/>
<path d="M38.3437 12.3066V28.5676H35.5227V23.4859C35.593 21.5809 35.6634 19.7137 35.7553 17.8841L35.639 17.8383C35.1711 19.1856 34.6356 20.6513 34.1217 22.1144L33.0263 24.9975H30.1783L29.0829 22.1144C28.569 20.6513 28.0552 19.1856 27.5656 17.8383L27.4493 17.8841C27.5413 19.7191 27.6116 21.5782 27.6819 23.4859V28.5676H24.8799V12.3066H27.7739L30.4325 18.6736C30.7814 19.5331 31.3413 21.0205 31.5523 21.6941H31.6415C31.8525 21.0205 32.434 19.5385 32.7856 18.6736L35.4281 12.3066H38.3437Z" fill="white"/>
<path d="M48.0322 25.6265H44.2078L43.5479 28.5689H40.5728L44.5865 12.2998H47.659L51.6618 28.5689H48.6867L48.0322 25.6265ZM47.4507 22.9105L46.7935 19.8847C46.5609 18.7692 46.3039 16.9801 46.1389 15.8861H46.0686C45.928 16.9774 45.671 18.7692 45.4384 19.8847L44.7893 22.9105H47.4507Z" fill="white"/>
<path d="M109.164 25.2318H104.428L103.565 28.7642H101.559L105.754 12.4951H107.831L112.031 28.7642H110.027L109.164 25.2318ZM108.745 23.4642L107.414 17.9568C107.157 16.9113 106.925 15.5318 106.83 14.912H106.76C106.668 15.5398 106.432 16.9113 106.175 17.9568L104.845 23.4642H108.745Z" fill="white"/>
<path d="M113.761 24.0693V17.1876C113.761 13.9813 115.581 12.1895 118.31 12.1895C121.11 12.1895 122.835 13.9085 123 17.0395H121.107C120.966 14.9486 119.987 13.9705 118.283 13.9705C116.72 13.9705 115.671 14.9917 115.671 17.1769V24.0693C115.671 26.2248 116.766 27.2541 118.354 27.2541C120.079 27.2541 121.037 26.2545 121.223 24.2094H123.117C122.93 27.2999 121.204 29.0432 118.356 29.0432C115.603 29.0432 113.761 27.2756 113.761 24.0693Z" fill="white"/>
<path d="M131.771 25.2318H127.035L126.172 28.7642H124.165L128.365 12.4951H130.443L134.643 28.7642H132.636L131.771 25.2318ZM131.351 23.4642L130.021 17.9568C129.764 16.9113 129.531 15.5318 129.436 14.912H129.366C129.274 15.5398 129.039 16.9113 128.782 17.9568L127.451 23.4642H131.351Z" fill="white"/>
<path d="M137.125 12.4951H140.998C144.125 12.4951 145.945 14.3085 145.945 17.4233V23.8387C145.945 26.9535 144.103 28.7669 141.022 28.7669H137.125V12.4951ZM141.031 26.9535C142.943 26.9535 144.041 25.8757 144.041 23.7687V17.4691C144.041 15.3782 142.959 14.3085 141.031 14.3085H139.048V26.9535H141.031Z" fill="white"/>
<path d="M157.573 26.9751V28.7642H149.5V12.4951H157.316V14.2627H151.415V19.6327H156.897V21.376H151.415V26.9778L157.573 26.9751Z" fill="white"/>
<path d="M172.998 12.4951V28.7642H171.105V21.2952C171.129 19.5276 171.175 17.9487 171.267 16.367L171.172 16.3428C170.729 17.5741 170.123 19.0857 169.55 20.6189L167.846 25.0108H165.952L164.227 20.6189C163.667 19.0857 163.037 17.5741 162.604 16.3428L162.488 16.367C162.582 17.9487 162.65 19.5276 162.65 21.2952V28.7561H160.757V12.4951H162.764L165.587 19.304C165.985 20.2794 166.566 21.8826 166.823 22.7205H166.918C167.189 21.8853 167.781 20.2794 168.178 19.304L171.002 12.4951H172.998Z" fill="white"/>
<path d="M179.406 23.1813L175.395 12.4951H177.402L179.476 18.3313C179.747 19.0992 180.082 20.0288 180.363 20.8641H180.399C180.669 20.0261 181.004 19.075 181.286 18.2855L183.363 12.4978H185.37L181.321 23.1813V28.7588H179.409L179.406 23.1813Z" fill="white"/>
<circle cx="76.5" cy="20.5" r="20.5" fill="#68DE5A"/>
<path d="M70.5882 23.5419H66.918V15.5744L70.5882 14.917V23.5419Z" fill="black"/>
<path d="M75.8567 23.5412H72.1865V13.8331L75.8567 13.1406V23.5412Z" fill="black"/>
<path d="M81.1214 12.251H77.4512V23.5407H81.1214V12.251Z" fill="black"/>
<path d="M86.3983 23.5414H82.728V13.8252L86.3983 14.4826V23.5414Z" fill="black"/>
<path d="M86.3846 25.1406H77.4512V28.797H86.3846V25.1406Z" fill="black"/>
</svg>
